<?xml version="1.0" encoding="utf-8"?>
<!-- Generator: Adobe Illustrator 27.0.0, SVG Export Plug-In . SVG Version: 6.00 Build 0)  -->
<svg version="1.1" xmlns="http://www.w3.org/2000/svg" xmlns:xlink="http://www.w3.org/1999/xlink" x="0px" y="0px"
	 viewBox="0 0 612 792" style="enable-background:new 0 0 612 792;" xml:space="preserve">
<style type="text/css">
	.st0{clip-path:url(#SVGID_00000039117114796789202130000011108415816182159776_);fill:#FFFFFF;}
</style>
<g id="Calque_2">
	<rect width="612" height="792"/>
</g>
<g id="Calque_1">
	<g>
		<g>
			<g>
				<g>
					<defs>
						<rect id="SVGID_1_" x="53" y="100.2" width="505" height="592.6"/>
					</defs>
					<clipPath id="SVGID_00000077321193670450929100000015999517565349624237_">
						<use xlink:href="#SVGID_1_"  style="overflow:visible;"/>
					</clipPath>
					<path style="clip-path:url(#SVGID_00000077321193670450929100000015999517565349624237_);fill:#FFFFFF;" d="M550.5,441.4
						c-21.5,0.8-31.6-23.2-49-31.4c-7.6-3.6-16.4-4.6-24.8-3.1c2.1-2.3,4.2-4.6,6.3-6.9c15.5-17.2,30.2-33.5,65-34.1
						c0.9,0,1.5-0.7,1.6-1.5c0-0.9-0.6-1.6-1.5-1.6c-2.6-0.2-5.2-0.3-7.6-0.3c-31.1,0-47.1,14.4-62.6,28.3c-1.9,1.7-3.7,3.3-5.5,4.9
						c9.2-18.5,11.7-39.5,12.1-61c1-0.9,2-1.8,3.2-2.5c3.7-2.4,8-3.9,11.9-5.9c4.4-2.3,8.1-5.2,11-9.2c0.5-0.8,4.8-6.7,3.3-7.7
						c-0.8-0.6-4.7,2.1-5.4,2.5c-2.2,1-4.4,1.9-6.6,2.8c-4.5,1.8-9.1,3.5-12.9,6.4c-1.7,1.3-3.1,2.8-4.3,4.5v-1.5
						c0.7-1,1.3-1.8,1.4-1.8c8.2-8.3,21.4-8.9,30.3-16.7c3.8-3.3,6-7.8,6.6-12.8c0.2-1.2,0.2-2.3,0.2-3.5c0-0.7,0-2.2-1-2.1
						s-1.4,2.3-1.8,3c-6.2,10.5-20.7,7.9-29.9,13.7c-2.3,1.4-4.3,3.4-6,5.6c-0.1-2-0.1-4.1-0.2-6.1c-0.6-21.8-1.2-44.1,2.8-64.6
						c1.4-0.7,2.8-1.2,4.3-1.4c3.4-0.6,6.9-0.3,10.3-0.6c3.8-0.3,7.4-1.2,10.7-3.3c0.6-0.4,5.5-3.4,4.8-4.5c-0.4-0.6-4,0.1-4.7,0.2
						c-1.9,0.1-3.7,0-5.6,0c-3.8,0-7.6-0.3-11.2,0.7c-2.8,0.7-5.4,2.2-7.5,4.1c0.1-0.4,0.2-0.8,0.3-1.2c1.9-1.3,4.6-2.9,4.7-3
						c8.5-3.5,18.1,0.1,26.8-2.8c3.7-1.2,6.7-3.8,8.6-7.1c0.5-0.8,0.9-1.6,1.2-2.5c0.2-0.5,0.6-1.6-0.1-1.8
						c-0.7-0.2-1.7,1.2-2.2,1.6c-7.7,5.6-17.3-0.6-25.7,0.7c-4.2,0.7-8.2,3-11,6.3c1-3,2.1-6,3.4-8.9c0.3-0.8,0-1.7-0.7-2.1
						c-0.8-0.4-1.7-0.1-2.1,0.6c-2.2,3.9-4.2,7.8-5.9,11.9c-1.6-5.6-5.2-10.7-10.1-13.7c-9.2-5.7-23.7-3.2-29.9-13.7
						c-0.4-0.7-0.8-2.9-1.8-3s-1,1.4-1,2.1c0,1.2,0,2.4,0.2,3.5c0.6,4.9,2.9,9.4,6.6,12.8c4.5,4,10.1,6,15.7,8.2
						c-3.7,2.2-6.7,5.1-9.1,8.8c-3.1,4.9-4.7,10.7-5.4,16.7c-1.9-3.1-4.4-5.8-7.4-7.7c-9.2-5.8-23.7-3.2-29.9-13.7
						c-0.4-0.7-0.8-2.9-1.8-2.9c-1-0.1-1,1.4-1,2.1c0,1.2,0,2.4,0.2,3.5c0.7,4.9,2.9,9.4,6.6,12.8c8.8,7.8,22,8.3,30.3,16.7
						c0.1,0.1,1.8,2.3,3.2,4.5c0.5,5.2,1.5,10.3,2.6,14.8c1,4.4,2.1,8.7,3.2,13.1c7.4,29.6,14.4,57.5,7.4,82.4
						c-7.9,28.5-28.8,47.9-63.7,59.3c-4.7,1.5-9.5,3-14.3,4.5c-13.9,4.4-28.3,8.8-41,14.5c0.9-8.4,0.8-16.3-0.2-24
						c-0.5-4.1-1.3-8.2-2.3-12.4c1.2,0,2.5-0.1,3.7,0c7.8,0.4,15.5,2.7,23.2,3.7c8.7,1.1,16.9,0.9,25.3-1.9
						c1.6-0.5,13.7-4.8,12.7-7.6c-0.6-1.6-8.9-1.7-10.4-2c-4.2-0.7-8.3-1.7-12.4-2.7c-8.3-2-16.6-4.4-25.2-4.1
						c-6.3,0.2-12.3,1.9-17.7,4.9c0.8-1,1.7-2,2.5-3c4.4-1.7,9.5-3.3,9.8-3.4c20.5-3.5,40,9.2,60.7,7.1c8.8-0.9,16.7-5.1,22.7-11.6
						c1.4-1.5,2.7-3.2,3.9-4.9c0.7-1,2.2-3.2,0.6-4.1c-1.4-0.9-4.3,1.9-5.6,2.5c-19.7,8.7-37.9-9.9-57.2-11.1
						c-2.7-0.2-5.5,0-8.2,0.4c1.8-1.6,3.6-3.1,5.4-4.6c4.2-3.6,8.4-7.2,12.6-10.8c8.9-7.8,21.2-18.5,13.9-34
						c-0.4-0.8-1.3-1.1-2.1-0.8c-0.8,0.3-1.2,1.2-0.9,2c4.9,13-8.9,22.9-20,30.9c-2.1,1.5-4,2.9-5.7,4.2
						c-12.1,9.3-25.8,19.7-37.6,31.1c-3.4-9.5-7.7-19-12.4-28.5c1.1-1.6,2.1-2.8,2.2-3c8.2-8.3,21.4-8.9,30.3-16.7
						c3.8-3.3,6-7.8,6.6-12.8c0.2-1.2,0.2-2.4,0.2-3.5c0-0.7,0-2.2-1-2.1s-1.4,2.3-1.8,3c-6.2,10.5-20.7,7.9-29.9,13.7
						c-5,3.1-8.6,8.3-10.2,14.1c-2.9-5.6-5.9-11.3-8.9-17c1.4-1.2,2.7-2.4,4.1-3.6c11-9.8,22.4-19.9,29.8-30.8
						c3.1-4.7,5.4-9.6,7.2-14.6c0.8,0,1.6,0,2.4,0.1c4.4,0.5,8.7,2,13,2.8c4.8,0.9,9.5,1,14.3-0.3c0.9-0.3,7.9-2.3,7.4-3.9
						c-0.3-0.9-5-1.2-5.8-1.4c-2.3-0.5-4.6-1.2-6.9-1.9c-4.6-1.4-9.2-3-14.1-3.1c-2.8-0.1-5.5,0.5-8.1,1.4c0.1-0.4,0.2-0.7,0.3-1.1
						c2.3-0.7,4.6-1.3,4.8-1.3c11.6-1.4,22.3,6.4,34,5.9c5-0.2,9.6-2.4,13.1-5.8c0.8-0.8,1.6-1.7,2.3-2.7c0.4-0.5,1.3-1.7,0.5-2.3
						c-0.8-0.5-2.5,0.9-3.2,1.2c-11.4,4.3-21.1-6.7-31.9-8c-5.9-0.7-12.1,1.2-17,4.8c4.9-14.5,11.2-28,32.2-37.9
						c0.8-0.4,1.1-1.3,0.8-2.1c-0.3-0.8-1.2-1.2-2-0.9c-25.9,9.5-33,25.7-39.9,41.3c-0.5,1.1-1,2.3-1.5,3.3
						c0.2-22.5-10.3-44.4-20.6-65.6c-6.2-12.7-12.5-25.7-16.4-38.9c1.3-1.6,2.9-3,4.6-4.1c3.7-2.4,8-3.9,11.9-5.9
						c4.4-2.3,8.1-5.1,11-9.2c0.5-0.7,4.8-6.7,3.4-7.7c-0.8-0.6-4.7,2.1-5.5,2.5c-2.2,1-4.4,1.9-6.6,2.8c-4.4,1.8-9.1,3.4-12.9,6.4
						c-3.3,2.5-5.7,6-7.3,9.9c-0.1-0.6-0.3-1.2-0.4-1.8c1.4-2.5,4.6-6.7,4.8-6.9c8.2-8.3,21.5-8.9,30.3-16.7c3.8-3.3,6-7.8,6.6-12.8
						c0.1-1.2,0.2-2.3,0.2-3.5c0-0.7,0-2.2-1-2.1c-0.9,0.1-1.4,2.3-1.8,3c-6.2,10.5-20.7,7.9-29.9,13.7c-5.6,3.5-9.6,9.8-10.6,16.5
						c-0.4-2.9-0.6-5.8-0.6-8.8c0-0.8-0.7-1.5-1.5-1.6s-1.6,0.6-1.7,1.4c-2.2,21.8,4.2,42.8,12.9,65.5c-12-11.8-26.9-27.8-26.8-41.6
						c0-5.2,2.1-9.7,6.3-13.7c0.6-0.6,0.7-1.5,0.1-2.2c-0.5-0.6-1.5-0.8-2.2-0.3c-2.9,2.1-5.2,4.6-6.8,7.4c0-1.6-0.1-3.2-0.3-4.8
						c-1.2-8.7-5.9-16.1-13.8-21.9c-0.7-0.5-1.6-0.4-2.2,0.3c-0.5,0.6-0.5,1.6,0.1,2.2c6.5,6.2,9.7,13.1,9.8,21.2
						c0.1,22.1-24.6,47.6-43.1,65.6c11.5-29.9,20.6-57.6,21.2-85.7c1.4-2.5,4.5-6.6,4.7-6.8c8.2-8.4,21.4-8.9,30.3-16.7
						c3.8-3.3,6-7.8,6.6-12.8c0.2-1.2,0.2-2.4,0.2-3.5c0-0.7,0-2.2-1-2.1s-1.4,2.3-1.8,2.9c-6.2,10.5-20.7,7.9-29.9,13.7
						c-4.3,2.7-7.6,7-9.4,11.9c-0.1-0.8-0.1-1.5-0.2-2.3s-0.9-1.5-1.7-1.4c-0.9,0-1.5,0.7-1.5,1.6c0,20.4-6.1,40.7-14.4,60.7
						c-0.9-5.4-3.4-10.6-7.3-14.4c-8.7-8.6-25.3-9.4-29.5-22.5c-0.3-0.9-0.2-3.4-1.2-3.7c-1.1-0.3-1.5,1.3-1.7,2
						c-0.3,1.3-0.6,2.6-0.7,3.9c-0.5,5.6,0.8,11.1,4.1,15.7c7.8,10.7,22.1,14.6,29.1,25.9c0.1,0.2,1.1,2.3,2,4.7
						c-0.2,0.4-0.4,0.8-0.6,1.3c-1-2.9-2.4-5.6-4.4-7.9c-3.5-4.2-8.2-7.1-12.6-10.2c-2.2-1.5-4.4-3.1-6.5-4.7
						c-0.8-0.6-4.4-4.5-5.4-4.1c-1.8,0.7,1.4,8.3,1.8,9.3c2.2,5.1,5.6,9.2,9.8,12.8c3.8,3.3,8.1,5.9,11.6,9.5
						c0.9,0.9,1.7,1.8,2.4,2.8c-2.4,5-4.8,10-7.2,14.9c-3.9,8.1-8,16.4-11.7,24.7c-1.2-11.1-3.8-23.1-10.8-33.3
						c-8.9-13.2-23-22.9-36.7-32.3c-1-0.7-2.2-1.5-3.4-2.3c-4.5-2.9-9.7-6.3-11.6-10.5c1.1-2.3,4.9-7.3,5.1-7.5
						c8.2-8.3,21.4-8.9,30.3-16.7c3.8-3.3,6-7.8,6.6-12.8c0.2-1.2,0.2-2.4,0.2-3.5c0-0.7,0-2.2-1-2.1c-0.9,0.1-1.4,2.3-1.8,3
						c-6.2,10.5-20.7,7.9-29.9,13.7c-6.1,3.8-10.2,10.9-10.9,18.1c-0.8-0.2-1.6,0.1-1.9,0.9c-3.9,9.5,3.9,15.8,9.1,19.9
						c2.5,2,5,3.9,7.5,5.9c4.8,3.7,9.7,7.5,14.3,11.4c12,10.1,19.4,23.4,22.6,40.6c-9.9-8.3-25.1-12.3-39.9-16.1
						c-2.8-0.7-5.6-1.5-8.4-2.2c-20-5.5-32.3-15.8-37.5-31.7c-4.6-13.8-1.4-29.9,2-46.9c0.5-2.5,1-5,1.5-7.5
						c1.6-8.2,2.3-19.6-2.9-27.1c-2.7-3.8-6.6-6.2-11.7-7c-0.8-0.2-1.6,0.4-1.8,1.2c-0.2,0.8,0.3,1.6,1.1,1.9c4.1,1.2,7,3.5,8.8,6.9
						c4.5,8.8,0.6,23.5-3.3,35.3c-2-17.7-5-33.5-13.7-47c-0.5-0.7-1.4-0.9-2.1-0.5s-1,1.3-0.6,2.1c7.4,14.5,7.7,32.4,8.1,49.8
						c0,2.8,0.1,5.6,0.2,8.4c-2.3-2.5-5-4.7-8-6.1c-11.1-5.2-27-0.3-35.3-11.2c-0.6-0.7-1.3-3.1-2.4-3.1c-1.1,0-0.9,1.7-0.9,2.5
						c0.1,1.3,0.3,2.6,0.7,3.9c1.4,5.4,4.5,10.2,9.1,13.4c10.9,7.5,25.8,6.3,36.1,14.5c0.1,0.1,0.8,0.8,1.7,1.7
						c0,0.5,0.1,1.1,0.2,1.7c-1.6-1.6-3.3-3.1-5.3-4.2c-4.7-2.7-10.1-3.9-15.3-5.4c-2.6-0.7-5.2-1.4-7.8-2.3
						c-0.9-0.3-5.6-2.8-6.4-2.1c-1.4,1.3,4.1,7.4,4.8,8.2c3.8,4.1,8.4,6.8,13.6,8.8c4.6,1.8,9.6,2.8,14.1,5c1.5,0.7,2.9,1.7,4.3,2.7
						c1.1,4.7,2.6,9.2,4.6,13.5c-0.2-0.2-0.5-0.4-0.8-0.6c-8.8-7.2-17.9-14.7-34.3-14.7c-2.3,0-4.6,0.1-7.1,0.4
						c-0.9,0.1-1.5,0.9-1.4,1.7c0.1,0.9,0.8,1.5,1.6,1.5c19.6-0.6,28.3,8.2,37.6,17.5c4.6,4.7,9.5,9.6,15.7,13
						c8.8,4.9,20,7.8,30.8,10.6c14.9,3.9,30.4,7.9,38.8,17c10.6,11.6,10.2,28.7,8.5,43.8c-1.9,8.2-3,15.9-3.4,23.3
						c-0.4,2.7-0.8,5.3-1.1,7.9c-0.9-2.1-1.9-4.1-2.8-6.3c-9.6-21.9-19.5-44.4-52.6-58.8c-5.1-6.8-14.3-10.6-22.6-9.2
						c-10.7,1.8-19.9,13.3-31.5,9.6c-0.8-0.2-2.5-1.6-3.3-1.1c-0.8,0.6,0.2,1.7,0.6,2.2c0.7,0.9,1.6,1.8,2.5,2.5
						c3.7,3.3,8.4,5.2,13.4,5.2c11.8,0,22-8.4,33.7-7.6c0.1,0,1.8,0.4,3.7,0.8c31.8,16.7,39.1,39.3,46.8,63.3
						c0.6,1.8,1.1,3.5,1.7,5.3c-8.3-10.6-22.2-17-35.4-16.2c-19.2,1.2-37.4,19.8-57.2,11.1c-1.3-0.6-4.1-3.3-5.6-2.4s0,3.1,0.7,4.1
						c1.2,1.8,2.4,3.4,3.9,4.9c6,6.4,13.8,10.7,22.7,11.6c20.7,2.1,40.3-10.7,60.7-7.1c0.5,0.1,9.6,3,14.1,5.1
						c0.4,1,0.7,1.9,1.1,2.9c-6.2-4-13.2-6.4-20.6-6.6c-8.6-0.2-16.9,2.1-25.2,4.1c-4.1,1-8.2,2-12.4,2.7c-1.5,0.3-9.9,0.4-10.4,2
						c-1,2.9,11.2,7.1,12.7,7.6c8.3,2.8,16.6,3.1,25.3,1.9c7.8-1,15.4-3.3,23.2-3.7c4-0.2,8,0.2,11.8,1.3c1.4,2.8,3,5.5,4.8,8.1
						c11,16.3,28.1,31.4,44.6,46.1c10.7,9.4,21.7,19.2,30.8,29.1c6.1,10.8,12.8,21,20.4,31.2l1.3,1.7c0.4,1.2,0.8,2.4,1.1,3.6
						c11.1,39.9-19.5,152.8-46.9,191c-5.1,7.1-10.8,15-16.1,23c-0.3,0.5-0.3,1.1-0.1,1.6c0.3,0.5,0.8,0.8,1.4,0.9l30.4,0.3l0,0
						c0.5,0,1-0.2,1.3-0.7c3.6-4.9,7.2-9.7,10.8-14.5c12.8-17.2,23.6-61.2,33.2-100c5.9-24,11.5-46.6,16.4-57.8
						c5.4-12.2,11.5-26.8,15.6-41.7c14.6-14.8,39.7-22.6,63.9-30.2c14-4.4,28.3-8.8,40.8-14.7c4,0.3,8,1.5,11.6,3.1
						c7.1,3.3,13.4,8.2,20.2,12c7.6,4.3,15.4,7.1,24.2,7.6c1.6,0.1,14.5,0.7,14.7-2.4c0.1-1.7-7.6-4.9-8.9-5.7
						c-3.6-2.2-7.1-4.7-10.5-7.1c-6.9-4.9-13.8-10.2-21.9-13.2c-4.9-1.8-10-2.5-15.1-2.3c0.7-0.5,1.5-1,2.2-1.5
						c4.1,0.1,8.2,0.4,8.5,0.5c20.3,4.3,33.8,23.4,53.8,29.1c8.5,2.4,17.4,1.4,25.3-2.4c1.9-0.9,3.7-1.9,5.4-3.1
						c0.9-0.7,3.2-2.1,2.1-3.5C555.5,439.9,551.9,441.4,550.5,441.4L550.5,441.4z M262.2,381.8c-7-22.9-6.4-43.5,1.9-63.1
						c3.1-7.4,6.6-14.8,10-22c1.8-3.8,3.6-7.6,5.3-11.4c1.6-3.5,3.5-7.7,4.3-12.1c0.5-0.2,1-0.4,1.5-0.5c2.9-0.7,5.9-0.8,8.9-1.3
						c3.3-0.6,6.3-1.6,9-3.6c0.5-0.4,4.5-3.3,3.7-4.3c-0.4-0.5-3.5,0.4-4,0.5c-1.6,0.2-3.2,0.3-4.8,0.4c-3.2,0.2-6.6,0.3-9.7,1.4
						c-1.6,0.5-3,1.4-4.3,2.4c0-0.2,0-0.4-0.1-0.7c1.1-0.9,2.2-1.6,2.3-1.6c7-3.7,15.6-1.3,22.9-4.4c3.1-1.4,5.5-3.8,6.9-6.8
						c0.3-0.7,0.6-1.5,0.9-2.2c0.1-0.4,0.4-1.4-0.2-1.6c-0.6-0.2-1.3,1.2-1.7,1.5c-6.2,5.5-15,0.8-22.1,2.6c-4.2,1-8,4.1-10.1,8
						c-0.9-2-2.3-4-4.4-5.8c-0.7-0.6-1.6-0.5-2.2,0.1s-0.6,1.6,0,2.2c7.2,7.2,0.8,18.2-4.3,27c-1,1.7-1.9,3.3-2.7,4.7
						c-10.4,19.2-21.1,39.1-23.7,59.8c-2.2,17,2.4,33.1,8.3,48.2c-1.1-1-2.2-2-3.3-3c-30.9-28-43.4-57.8-38.3-91.1
						c0.8-5.4,2.2-10.6,4-15.8l0.1-0.1c1.9-1.4,4-2.3,6.2-2.9c4.1-1.1,8.4-1.1,12.6-1.9c4.6-0.8,8.9-2.3,12.7-5.1
						c0.7-0.5,6.3-4.7,5.3-6c-0.5-0.7-4.9,0.6-5.7,0.7c-2.3,0.3-4.6,0.5-6.8,0.6c-4.6,0.3-9.3,0.5-13.6,2c-2.9,1-5.4,2.7-7.6,4.7
						c0.3-0.6,0.5-1.2,0.8-1.8c1.8-1.4,3.6-2.7,3.7-2.7c9.9-5.2,22.1-1.8,32.4-6.2c4.4-1.9,7.7-5.3,9.8-9.6c0.5-1,0.9-2.1,1.2-3.2
						c0.2-0.6,0.6-2-0.3-2.2s-1.9,1.7-2.5,2.2c-8.7,7.7-21.1,1.1-31.2,3.6c-1.4,0.4-2.7,0.9-4,1.5c8.2-13.2,18.4-26.2,28.9-39.5
						c3.1-4,6.3-8,9.4-12c6.3-8.1,13.1-18.7,16.7-29.7c1.3,9.6,7.3,19.1,12.6,26c2.1,2.7,4.2,5.4,6.3,8
						c14.2,18.1,27.6,35.1,30.6,54.3c3.4,22-4.9,41.7-25.4,60.2c-0.7,0.7-1.5,1.3-2.2,2l-1-1.7c-7.8-13.5-17.5-30.2-6.3-41.5
						c0.6-0.6,0.6-1.6,0-2.2s-1.6-0.7-2.2-0.1c-14.6,12.6-7,29.2-1.4,41.4c1.5,3.2,3,6.5,4.5,9.7
						C284.4,351.5,268.4,365.6,262.2,381.8L262.2,381.8z M303,446.3c-2.1-2.5-4.2-4.9-6.4-7.2c-11.3-17-22.2-37.1-16.5-57.3
						c3.5-12.4,13.8-23.5,24.7-33.7c4.4,9.4,9.3,19.8,13.6,30c3.7,8.7,6.4,17.8,8.1,27c-5.3,6-9.6,11.8-13.3,17.7
						C308.9,429.9,305.5,437.6,303,446.3L303,446.3z M324.1,462.7c-2.4,1.8-4.6,3.6-6.7,5.5c-0.4-0.9-0.9-1.8-1.4-2.7
						c2.2-15.2,6.3-28.6,12.4-40.6C328.7,437.1,327.2,449.8,324.1,462.7L324.1,462.7z M460.5,234.4c2.1-4.5,5.2-8,9.4-10.6
						c3.6,1.6,6.9,3.5,9.7,6.4c0.1,0.1,1.3,1.7,2.5,3.4c-7.3,20.6-9.6,43.5-11,68.2C462.8,280.7,452.5,251.9,460.5,234.4
						L460.5,234.4z"/>
				</g>
			</g>
		</g>
	</g>
</g>
</svg>
