<svg xmlns="http://www.w3.org/2000/svg" height="48" viewBox="0 96 960 960" width="48"><path d="M564 902v-73h113q23.975 0 40.488-15.9Q734 797.2 734 772v-84q0-38.035 23.475-68.827Q780.95 588.38 818 576v-6q-38-6-61-37.05-23-31.05-23-69.95v-84q0-24.225-16.387-40.613Q701.225 322 677 322H564v-73h126.5q48.708 0 82.604 34.125T807 366v84q0 24.225 15.9 40.613Q838.8 507 864 507h23v138h-23q-25.2 0-41.1 16.388Q807 677.775 807 702v84q0 49.25-33.979 82.625T690.5 902H564Zm-294.353 0q-49.064 0-82.355-33.375Q154 835.25 154 786v-84q0-24.225-16.387-40.612Q121.225 645 97 645H74V507h23q24.225 0 40.613-16.387Q154 474.225 154 450v-84q0-48.75 33.375-82.875T269.647 249H397v73H284q-24.95 0-40.975 16.387Q227 354.775 227 379v84q0 38.9-23.5 69.95Q180 564 142 570v6q37.05 12.38 61.025 43.173Q227 649.965 227 688v84q0 25.2 15.9 41.1Q258.8 829 284 829h113v73H269.647Z"/></svg>