<svg xmlns="http://www.w3.org/2000/svg" height="48" viewBox="0 96 960 960" width="48"><path d="M580 958q-15 0-25.5-11T544 921q0-15 10.5-25.5T580 885q65 0 99.5-21t34.5-53q0-23-30.5-47.5T592 726l57-58q74 22 106 60.5t32 82.5q0 71-59.5 109T580 958ZM229 644q-74-15-106.5-50T90 521q0-37 25.5-65.5T240 390q63-22 81.5-36.5T340 322q0-22-20.5-38.5T256 267q-26 0-44 7t-31 20q-11 11-25.5 12t-26.5-8q-13-9-13.5-24t8.5-26q18-24 53.5-39t78.5-15q71 0 114 34.5t43 93.5q0 43-29.5 73T269 457q-68 25-87 37.5T163 521q0 18 30 34t95 30l-59 59Zm507-147L599 360l50-50q19-19 44-19t45 19l48 48q19 20 19 45t-19 44l-50 50ZM154 942V805l402-402 137 137-402 402H154Z"/></svg>