<svg xmlns="http://www.w3.org/2000/svg" height="48" viewBox="0 96 960 960" width="48"><path d="M759 988q-7.909 0-14.455-3Q738 982 733 976L501 743q-6.182-4.929-8.591-11.179Q490 725.571 490 718t2.409-13.821q2.409-6.25 8.591-12.179l95-95q4.929-5.182 11.179-8.091Q613.429 586 621 586t13.821 2.909q6.25 2.909 12.179 8.091l233 233q5 5 8 11.567 3 6.566 3 14.5 0 7.933-2.909 14.033T880 881l-95 96q-5.929 5.182-12.179 8.091Q766.571 988 759 988Zm-559-1q-8 0-14.643-2.5Q178.714 982 174 976l-94-94q-6-4.714-8.5-11.357Q69 864 69 856t2.5-14.1Q74 835.8 80 830l213-213h95l40-40-168-169h-57L61 267l108-108 142 141v57l168 169 126-126-67-67 50-50H488l-25-24 137-137 25 24v100l49-49 173.931 172.931Q863 386 872.5 406.425 882 426.851 882 450q0 22.647-9 43.823Q864 515 850 532l-85-85-56 56-52-52-218 218v94L226 976q-5.929 6-12.179 8.5T200 987Z"/></svg>