<svg xmlns="http://www.w3.org/2000/svg" height="48" viewBox="0 96 960 960" width="48"><path d="M105.912 911Q76 911 54.5 889.411q-21.5-21.588-21.5-52Q33 807 54.634 786q21.633-21 51.023-21H116q5 0 13 2l200-200q-2-8-2.5-12.3-.5-4.3-.5-10.351 0-29.844 21.589-51.097 21.588-21.252 52-21.252Q430 472 451 493.494t21 51.677q0 1.829-3 22.524L578.206 676q7.961-2 12.925-2.5t9.917-.5q4.952 0 9.952.5t12.966 2.5L783 517q-2-7.906-2-12.821v-10.453q0-30.459 21.589-51.592 21.588-21.134 52-21.134Q885 421 906 442.207t21 51.882Q927 524 905.686 545.5T854.442 567H844q-5 0-13-2L672 724q2 8 2 12.858v10.319q0 30.04-21.207 51.431Q631.586 820 600.911 820 571 820 549.5 798.608 528 777.217 528 747.177q0-5.461.5-10.24t2.5-12.738L421.925 615q-7.954 2.019-12.912 2.519-4.958.5-10.153.5-1.731 0-22.68-3.019L177 815q2 8 2 13v10.344q0 29.389-21.207 51.022Q136.586 911 105.912 911ZM160 479l-25-54-54-25 54-25.316L160 320l25.316 54.684L240 400l-54.684 25L160 479Zm440-43-37.6-82.4L480 316l82-38.317L600 195l38.317 82.683L721 316l-82.683 38L600 436Z"/></svg>