<svg xmlns="http://www.w3.org/2000/svg" height="48" viewBox="0 96 960 960" width="48"><path d="M629.941 527q24.559 0 41.809-17.191Q689 492.618 689 468.059t-17.191-41.809Q654.618 409 630.059 409t-41.809 17.191Q571 443.382 571 467.941t17.191 41.809Q605.382 527 629.941 527Zm-300 0q24.559 0 41.809-17.191Q389 492.618 389 468.059t-17.191-41.809Q354.618 409 330.059 409t-41.809 17.191Q271 443.382 271 467.941t17.191 41.809Q305.382 527 329.941 527ZM480 805q70.598 0 128.799-38Q667 729 692 664h-61q-23.319 39.925-63.848 61.963Q526.623 748 480.5 748t-87.152-21.537Q352.319 704.925 330 664h-62q26 65 83.701 103Q409.402 805 480 805Zm0 187q-85.64 0-161.893-32.731-76.254-32.73-132.66-88.84Q129.04 814.32 96.52 737.98 64 661.64 64 576q0-85.64 32.73-161.893 32.731-76.254 88.841-132.66Q241.68 225.04 318.02 192.52 394.36 160 480 160q85.64 0 161.893 32.731 76.254 32.73 132.66 88.84Q830.96 337.68 863.48 414.02 896 490.36 896 576q0 85.64-32.731 161.893-32.73 76.254-88.84 132.66Q718.32 926.96 641.98 959.48 565.64 992 480 992Z"/></svg>